# xmcd
#
# Track frame offsets: 
#        150
#        12788
#        24665
#        43823
#        62060
#        78398
#        103390
#        125080
#        138180
#        158523
#        166870
#        190318
#
# Disc length: 2821 seconds
#
# Revision: 3
# Processed by: cddbd v1.5.2PL0 Copyright (c) Steve Scherf et al.
# Submitted via: ExactAudioCopy v0.99pb5
#
DISCID=9b0b030c
DTITLE=Titi Winterstein Quintett - Gipsy Feelings
DYEAR=1993
DGENRE=Jazz
TTITLE0=Noto-Swing
TTITLE1=Amoureux
TTITLE2=Sur Ma Tombe
TTITLE3=Milko
TTITLE4=Sinto Nova
TTITLE5=Swing '85
TTITLE6=Djinee Tu Kowa Ziro
TTITLE7=For Babs
TTITLE8=Ich Liebe Die Sonne, Den Mond Und Die Sterne
TTITLE9=Lulu-Valse
TTITLE10=Hunn, O Pani Naschella
TTITLE11=J'ai Souvent Pleure
EXTD=aka "Djinee Tu Kowa Ziro";\n\nTiti Winterstein (1956-2008);\n\nPe
EXTD=rsonnel:\nTiti Winterstein - violin;\nLulu Reinhardt - guitar;\nK
EXTD=laus Bruder - accordeon;\nGeisela Reinhardt - guitar;\nZiroli Win
EXTD=terstein - guitar;\nPeter Gropp - bass;\n\nSpecial Guest:\nHolzma
EXTD=nno Winterstein - rhythm guitar on track 7;\n\nAll arrangements b
EXTD=y Titi Winterstein Quintett;\nRecorded at the Tonstudio Teije van
EXTD=Geest-Sandhausen by Teije van Geest;\nProduced by Titi Winterste
EXTD=in Quintett and Siegfried Maeker;\n\n(p) and (c) 1993 Dino Music;\n\n
EXTD=CD Nr.: DNCD 1356;
EXTT0=
EXTT1=
EXTT2=
EXTT3=
EXTT4=
EXTT5=
EXTT6=
EXTT7=
EXTT8=
EXTT9=
EXTT10=
EXTT11=
PLAYORDER=
